<?xml version="1.0" standalone="no"?>
<!DOCTYPE svg PUBLIC "-//W3C//DTD SVG 20010904//EN" "http://www.w3.org/TR/2001/REC-SVG-20010904/DTD/svg10.dtd">
<svg version="1.0" xmlns="http://www.w3.org/2000/svg" width="449.000000pt" height="405.000000pt"
    viewBox="0 0 449.000000 405.000000" preserveAspectRatio="xMidYMid meet">

    <g transform="translate(0.000000,405.000000) scale(0.100000,-0.100000)" stroke="none">
        <path d="M2035 3870 c-228 -21 -491 -105 -666 -212 -25 -15 -58 -28 -72 -28
-13 0 -56 -9 -93 -21 -345 -106 -654 -432 -914 -964 -86 -175 -159 -349 -184
-437 -31 -109 -17 -283 35 -448 68 -212 310 -608 479 -782 81 -83 162 -98 260
-48 43 22 65 47 100 114 14 25 27 46 30 46 3 -1 28 -33 55 -72 67 -95 201
-236 284 -297 79 -59 204 -121 243 -121 61 0 90 76 46 117 -13 11 -49 32 -82
47 -80 36 -169 101 -242 177 -69 73 -176 214 -205 271 l-20 39 26 64 c31 79
31 126 0 257 -46 194 -60 319 -60 533 0 215 11 298 51 399 35 86 30 116 -23
145 -18 9 -30 8 -56 -3 -29 -12 -38 -24 -59 -82 -52 -139 -63 -220 -63 -459 0
-236 13 -353 60 -553 14 -57 25 -114 25 -127 0 -26 -142 -329 -167 -357 -18
-20 -54 -23 -82 -8 -22 11 -163 196 -256 335 -77 115 -184 329 -214 427 -33
109 -45 227 -31 306 21 121 185 489 313 702 151 251 347 463 525 567 72 42
181 83 241 89 36 4 72 17 101 34 157 98 384 176 580 200 363 44 701 -34 1046
-241 61 -37 92 -49 121 -49 163 0 365 -106 516 -269 175 -190 348 -510 472
-874 33 -97 37 -119 36 -210 0 -178 -66 -359 -230 -627 -101 -165 -242 -348
-285 -369 -48 -22 -71 6 -160 192 l-79 167 26 118 c94 411 94 792 0 1035 -32
83 -83 109 -133 69 -24 -20 -30 -75 -11 -109 24 -46 51 -175 61 -294 17 -199
-2 -397 -66 -689 -29 -130 -27 -163 13 -254 l27 -59 -23 -41 c-49 -86 -131
-204 -188 -268 -82 -93 -155 -150 -254 -200 -82 -42 -84 -44 -87 -81 -7 -86
55 -99 173 -38 142 74 266 194 397 384 l60 89 29 -50 c52 -91 125 -130 222
-118 66 7 108 36 171 115 241 302 400 599 463 865 11 45 17 111 17 181 0 104
-2 117 -47 248 -139 410 -350 782 -551 970 -171 161 -363 255 -519 257 -37 0
-60 8 -103 35 -153 98 -410 203 -584 239 -161 33 -326 41 -495 26z" fill="#fff" stroke="#000" stroke-width="10" />
        <path d="M1563 2661 c-76 -35 -103 -127 -61 -202 40 -71 102 -82 199 -33 53
27 62 49 49 129 -11 67 -18 81 -45 99 -40 26 -95 29 -142 7z" fill="#fff" stroke="#000" stroke-width="10" />
        <path d="M2902 2669 c-42 -12 -68 -55 -77 -125 -9 -74 -1 -91 57 -120 69 -35
128 -37 164 -4 30 28 54 78 54 112 0 46 -39 106 -84 127 -46 23 -64 24 -114
10z" fill="#fff" stroke="#000" stroke-width="10" />
        <path d="M1965 2015 c-56 -20 -77 -51 -130 -194 -64 -174 -64 -173 128 -248
76 -29 96 -33 126 -26 20 5 106 6 196 1 l160 -8 103 51 c98 49 142 85 142 116
0 8 -18 58 -41 111 -92 217 -72 206 -394 209 -199 2 -258 0 -290 -12z" fill="#fff" stroke="#000" stroke-width="10" />
        <path d="M1432 1593 c-41 -16 -55 -139 -27 -242 35 -131 132 -257 263 -341
l71 -45 1 -100 c1 -193 37 -372 99 -492 69 -137 199 -197 426 -196 228 0 300
53 378 278 44 127 57 212 57 368 l0 123 38 18 c159 76 307 247 341 396 15 66
13 166 -4 199 -24 47 -78 56 -112 19 -16 -18 -22 -41 -26 -110 -8 -145 -67
-240 -207 -333 -77 -51 -140 -69 -193 -54 -20 5 -78 42 -129 82 l-93 73 -3
109 c-3 126 -13 145 -72 145 -59 0 -69 -19 -72 -145 l-3 -109 -93 -73 c-51
-40 -109 -77 -129 -82 -53 -15 -116 3 -193 54 -140 93 -199 188 -207 333 -4
69 -10 92 -26 110 -19 21 -55 27 -85 15z" fill="#fff" stroke="#000" stroke-width="10" />
    </g>
</svg>