<svg viewBox="0 0 96 96" xmlns="http://www.w3.org/2000/svg" width="96" height="96" fill="none">
    <g transform="translate(0, 14)">
        <defs>
            <linearGradient id="idss977239637_1g-1621205006" x1="5.551115123125783e-17" x2="1" y1="0.6783844911555117"
                y2="0.3216155088444883">
                <stop offset="0" stop-color="rgb(255,166,90)" stop-opacity="1" />
                <stop offset="1" stop-color="rgb(255,83,122)" stop-opacity="1" />
            </linearGradient>
        </defs>
        <path
            d="M 57.297 62.643 C 44.532 67.17 30.228 63.636 21.216 53.727 C 20.172 52.524 18.75 51.69 17.172 51.354 C 16.359 51.174 15.528 51.084 14.694 51.081 C 13.779 51.078 12.855 51.135 11.946 51.249 C 11.307 51.324 10.638 51.432 4.341 51.843 C 3.921 51.771 3.507 51.651 3.117 51.489 C 2.724 51.324 2.361 51.111 2.031 50.847 C 1.68 50.562 1.371 50.232 1.119 49.863 C 0.819 49.428 0.579 48.96 0.405 48.465 L 0.405 48.459 C 0.213 47.97 0.09 47.46 0.03 46.944 C -0.021 46.497 -0.003 46.053 0.078 45.612 C 0.156 45.207 0.294 44.808 0.486 44.439 C 0.681 44.07 0.915 43.719 1.191 43.401 C 2.301 42.096 4.038 41.082 5.721 40.101 C 6.285 39.771 6.867 39.432 7.41 39.09 C 8.187 38.61 8.928 38.076 9.63 37.497 C 10.266 36.972 10.842 36.384 11.346 35.736 C 12.33 34.488 12.867 32.955 12.879 31.383 C 13.059 24.915 15.228 18.648 19.107 13.398 C 22.989 8.151 28.398 4.158 34.635 1.944 C 40.872 -0.27 47.649 -0.603 54.084 0.99 C 60.519 2.58 66.312 6.021 70.716 10.863 C 71.76 12.063 73.182 12.897 74.76 13.236 C 75.573 13.416 76.404 13.506 77.238 13.509 C 78.153 13.512 79.077 13.455 79.986 13.341 C 80.625 13.266 81.294 13.158 87.591 12.747 C 88.011 12.819 88.425 12.939 88.815 13.101 C 89.208 13.266 89.571 13.479 89.901 13.743 C 90.252 14.028 90.561 14.358 90.813 14.727 C 91.113 15.162 91.353 15.63 91.527 16.125 L 91.527 16.131 C 91.719 16.62 91.842 17.13 91.902 17.646 C 91.953 18.093 91.935 18.537 91.854 18.978 C 91.776 19.383 91.638 19.782 91.446 20.151 C 91.251 20.52 91.017 20.871 90.741 21.189 C 89.631 22.494 87.894 23.508 86.211 24.489 C 85.647 24.819 85.065 25.158 84.522 25.5 C 83.745 25.98 83.004 26.514 82.302 27.093 C 81.666 27.618 81.09 28.206 80.586 28.854 C 79.602 30.102 79.065 31.635 79.053 33.207 C 78.873 39.675 76.704 45.942 72.825 51.192 C 68.943 56.439 63.534 60.432 57.297 62.646 Z M 39.189 14.142 C 37.926 14.589 36.714 15.159 35.571 15.843 C 33.363 17.166 31.446 18.897 29.925 20.94 C 27.666 23.973 26.355 27.579 26.151 31.323 C 25.953 35.163 26.931 38.973 28.968 42.267 C 31.002 45.561 34.001 48.186 37.578 49.806 C 39.894 50.859 42.399 51.468 44.955 51.594 C 46.257 51.66 47.562 51.594 48.849 51.411 C 51.513 51.024 54.066 50.118 56.364 48.75 C 58.572 47.427 60.489 45.696 62.01 43.653 C 64.269 40.62 65.58 37.014 65.784 33.27 C 65.849 31.667 65.784 30.067 65.592 28.478 C 65.196 26.883 64.266 24.396 62.859 22.161 C 62.178 21.081 61.389 20.07 60.504 19.14 C 55.077 14.449 46.68 11.481 39.189 14.145 Z"
            fill="url(#idss977239637_1g-1621205006)" />
    </g>
</svg>